<svg xmlns="http://www.w3.org/2000/svg" xmlns:svg="http://www.w3.org/2000/svg" id="svg16" width="114.99" height="114.961" enable-background="new 0 0 1024 1024" version="1.1" viewBox="0 0 784.998 114.961"><metadata id="metadata22"/><path id="path10" fill="#556f7b" d="m 781.9,424.28047 c -13.4,-19 -35.2,-34.7 -58.3,-51.3 -24.8,-17.9 -50.3,-36.3 -63.1,-57.7 48.5,-10.1 109.8,-28.5 112.8,-29.4 5.3,-1.6 9.4,-5.7 11,-11 1.6,-5.3 0.4,-11 -3.1,-15.2 -3.2,-3.8 -77.4,-90.9 -197.3,-133.6 -5.3,-10.6 -11.2,-24.2 -18,-39.899998 -48.3,-110.7 -148.5,-340.600002 -412.8,-371.500002 -21.1,-14.2 -76.3,-49.6 -104,-49.6 -34.4,0 -49.1,14.7 -49.1,49.1 0,16.7 13.6,36.3 35.8,66.9 10.9,14.9 29,39.9 29.6,47.6 0,26.8 31,113.400002 62.3,150.500002 -0.9,1.9 -1.8,3.8 -2.7,5.6 -13.8,29.1 -26.9,56.7 -26.9,121.899998 0,85.9 41.1,130.8 81.8,130.8 25.2,0 37.8,-28.6 43.8,-62.1 22.4,45.5 59,104.7 110.3,140.9 7.4,5.2 17.6,3.4 22.8,-3.9 5.2,-7.4 3.4,-17.6 -3.9,-22.8 -81.3,-57.4 -124.3,-186.7 -124.7,-188 -2.5,-7.599998 -10.3,-12.399998 -18.1,-11.099998 -7.9,1.3 -13.8,8.1 -13.8,16.099998 0,44.9 -8.6,92.8 -16.4,98.1 -23.6,0 -49.1,-37.5 -49.1,-98.1 0,-57.899998 10.5,-79.899998 23.7,-107.8999977 2.5,-5.2 5,-10.6000003 7.6,-16.3000003 2.9,-6.6 1.2,-14.3 -4.3,-19 -25.2,-21.7 -59.7,-113.100002 -59.7,-134.800002 0,-16.7 -13.6,-36.3 -35.8,-66.9 -10.9,-14.9 -29,-39.9 -29.6,-47.6 0,-16.4 0,-16.4 16.4,-16.4 13.3,0 56.5,24 88.9,46.2 2.2,1.5 4.8,2.5 7.5,2.8 248.6,27 340.9,238.700002 390.5,352.500002 8.4,19.199998 15.6,35.699998 22.1,47.799998 2,3.7 5.2,6.4 9.2,7.7 81.6,27.7 142.5,79.4 171,107.1 -27.9,7.8 -72.3,19.7 -103,24.8 -4.5,0.8 -8.5,3.4 -11,7.2 -2.5,3.8 -3.3,8.5 -2.2,12.9 10,40.2 48.6,68.1 82.6,92.6 20.8,15 40.5,29.2 50.7,43.7 3.2,4.5 8.2,6.9 13.4,6.9 3.3,0 6.6,-1 9.4,-3 7.2,-5 8.9,-15.2 3.7,-22.6 z"/><path id="path12" fill="#556f7b" d="m 147.1,-204.11953 c 0,9 7.3,16.4 16.4,16.4 9,0 16.4,7.3 16.4,16.4 0,9 7.3,16.4 16.4,16.4 9,0 16.4,-7.3 16.4,-16.4 0,-27.1 -22,-49.1 -49.1,-49.1 -9.2,0 -16.5,7.3 -16.5,16.3 z"/><path id="path14" fill="#939598" d="m 781.9,424.28047 c -13.4,-19 -35.2,-34.7 -58.3,-51.3 -24.8,-17.9 -50.3,-36.3 -63.1,-57.7 48.5,-10.1 109.8,-28.5 112.8,-29.4 5.3,-1.6 9.4,-5.7 11,-11 1.6,-5.3 0.4,-11 -3.1,-15.2 -3.2,-3.8 -77.4,-90.9 -197.3,-133.6 -5.3,-10.6 -11.2,-24.2 -18,-39.899998 -48.3,-110.7 -148.5,-340.600002 -412.8,-371.500002 -21.1,-14.2 -76.3,-49.6 -104,-49.6 -34.4,0 -49.1,14.7 -49.1,49.1 0,16.7 13.6,36.3 35.8,66.9 10.9,14.9 29,39.9 29.6,47.6 0,26.8 31,113.400002 62.3,150.500002 -0.9,1.9 -1.8,3.8 -2.7,5.6 -13.8,29.1 -26.9,56.7 -26.9,121.899998 0,85.9 41.1,130.8 81.8,130.8 25.2,0 37.8,-28.6 43.8,-62.1 22.4,45.5 59,104.7 110.3,140.9 7.4,5.2 17.6,3.4 22.8,-3.9 5.2,-7.4 3.4,-17.6 -3.9,-22.8 -81.3,-57.4 -124.3,-186.7 -124.7,-188 -2.5,-7.599998 -10.3,-12.399998 -18.1,-11.099998 -7.9,1.3 -13.8,8.1 -13.8,16.099998 0,44.9 -8.6,92.8 -16.4,98.1 -23.6,0 -49.1,-37.5 -49.1,-98.1 0,-57.899998 10.5,-79.899998 23.7,-107.8999977 2.5,-5.2 5,-10.6000003 7.6,-16.3000003 2.9,-6.6 1.2,-14.3 -4.3,-19 -25.2,-21.7 -59.7,-113.100002 -59.7,-134.800002 0,-16.7 -13.6,-36.3 -35.8,-66.9 -10.9,-14.9 -29,-39.9 -29.6,-47.6 0,-16.4 0,-16.4 16.4,-16.4 13.3,0 56.5,24 88.9,46.2 2.2,1.5 4.8,2.5 7.5,2.8 248.6,27 340.9,238.700002 390.5,352.500002 8.4,19.199998 15.6,35.699998 22.1,47.799998 2,3.7 5.2,6.4 9.2,7.7 81.6,27.7 142.5,79.4 171,107.1 -27.9,7.8 -72.3,19.7 -103,24.8 -4.5,0.8 -8.5,3.4 -11,7.2 -2.5,3.8 -3.3,8.5 -2.2,12.9 10,40.2 48.6,68.1 82.6,92.6 20.8,15 40.5,29.2 50.7,43.7 3.2,4.5 8.2,6.9 13.4,6.9 3.3,0 6.6,-1 9.4,-3 7.2,-5 8.9,-15.2 3.7,-22.6 z m -634.8,-628.4 c 0,9 7.3,16.4 16.4,16.4 9,0 16.4,7.3 16.4,16.4 0,9 7.3,16.4 16.4,16.4 9,0 16.4,-7.3 16.4,-16.4 0,-27.1 -22,-49.1 -49.1,-49.1 -9.2,0 -16.5,7.3 -16.5,16.3 z"/></svg>